<mxfile host="app.diagrams.net" agent="Mozilla/5.0 (Macintosh; Intel Mac OS X 10.15; rv:130.0) Gecko/20100101 Firefox/130.0" version="24.7.14">
  <diagram name="Page-1" id="Zv4Jh_vU5PjGSgIFO_f6">
    <mxGraphModel dx="5463" dy="1734" grid="1" gridSize="10" guides="1" tooltips="1" connect="1" arrows="1" fold="1" page="1" pageScale="1" pageWidth="2339" pageHeight="3300" math="0" shadow="0">
      <root>
        <mxCell id="0" />
        <mxCell id="1" parent="0" />
        <mxCell id="eYYUnCkTj0kGZBejybl2-1" value="AGIE Account" style="points=[[0,0],[0.25,0],[0.5,0],[0.75,0],[1,0],[1,0.25],[1,0.5],[1,0.75],[1,1],[0.75,1],[0.5,1],[0.25,1],[0,1],[0,0.75],[0,0.5],[0,0.25]];outlineConnect=0;gradientColor=none;html=1;whiteSpace=wrap;fontSize=12;fontStyle=1;container=1;pointerEvents=0;collapsible=0;recursiveResize=0;shape=mxgraph.aws4.group;grIcon=mxgraph.aws4.group_aws_cloud_alt;strokeColor=#232F3E;fillColor=none;verticalAlign=top;align=left;spacingLeft=30;fontColor=#232F3E;dashed=0;hachureGap=4;fontFamily=Helvetica;" vertex="1" parent="1">
          <mxGeometry x="-2120" y="80" width="1800" height="1640" as="geometry" />
        </mxCell>
        <mxCell id="eYYUnCkTj0kGZBejybl2-2" value="Region" style="points=[[0,0],[0.25,0],[0.5,0],[0.75,0],[1,0],[1,0.25],[1,0.5],[1,0.75],[1,1],[0.75,1],[0.5,1],[0.25,1],[0,1],[0,0.75],[0,0.5],[0,0.25]];outlineConnect=0;gradientColor=none;html=1;whiteSpace=wrap;fontSize=12;fontStyle=1;container=1;pointerEvents=0;collapsible=0;recursiveResize=0;shape=mxgraph.aws4.group;grIcon=mxgraph.aws4.group_region;strokeColor=#00A4A6;fillColor=none;verticalAlign=top;align=left;spacingLeft=30;fontColor=#147EBA;dashed=1;hachureGap=4;fontFamily=Helvetica;" vertex="1" parent="eYYUnCkTj0kGZBejybl2-1">
          <mxGeometry x="40" y="40" width="1720" height="1560" as="geometry" />
        </mxCell>
        <mxCell id="eYYUnCkTj0kGZBejybl2-3" value="UI" style="fillColor=none;strokeColor=#5A6C86;verticalAlign=top;fontStyle=1;fontColor=#331A00;whiteSpace=wrap;html=1;hachureGap=4;fontFamily=Helvetica;" vertex="1" parent="eYYUnCkTj0kGZBejybl2-2">
          <mxGeometry x="40" y="40" width="360" height="560" as="geometry" />
        </mxCell>
        <mxCell id="eYYUnCkTj0kGZBejybl2-4" value="Regions" style="fillColor=none;strokeColor=#5A6C86;verticalAlign=top;fontStyle=1;fontColor=#330000;whiteSpace=wrap;html=1;hachureGap=4;fontFamily=Helvetica;" vertex="1" parent="eYYUnCkTj0kGZBejybl2-2">
          <mxGeometry x="440" y="40" width="360" height="560" as="geometry" />
        </mxCell>
        <mxCell id="eYYUnCkTj0kGZBejybl2-13" value="Notifications" style="fillColor=none;strokeColor=#5A6C86;verticalAlign=top;fontStyle=1;fontColor=#330000;whiteSpace=wrap;html=1;hachureGap=4;fontFamily=Helvetica;" vertex="1" parent="eYYUnCkTj0kGZBejybl2-2">
          <mxGeometry x="40" y="639.5" width="760" height="400" as="geometry" />
        </mxCell>
        <mxCell id="eYYUnCkTj0kGZBejybl2-14" value="Engine" style="fillColor=none;strokeColor=#5A6C86;verticalAlign=top;fontStyle=1;fontColor=#330000;whiteSpace=wrap;html=1;hachureGap=4;fontFamily=Helvetica;" vertex="1" parent="eYYUnCkTj0kGZBejybl2-2">
          <mxGeometry x="40" y="1080.5" width="760" height="400" as="geometry" />
        </mxCell>
        <mxCell id="eYYUnCkTj0kGZBejybl2-15" value="Results" style="fillColor=none;strokeColor=#5A6C86;verticalAlign=top;fontStyle=1;fontColor=#330000;whiteSpace=wrap;html=1;hachureGap=4;fontFamily=Helvetica;" vertex="1" parent="eYYUnCkTj0kGZBejybl2-2">
          <mxGeometry x="840" y="40" width="360" height="560" as="geometry" />
        </mxCell>
        <mxCell id="eYYUnCkTj0kGZBejybl2-17" value="Stac Server" style="fillColor=none;strokeColor=#5A6C86;verticalAlign=top;fontStyle=1;fontColor=#330000;whiteSpace=wrap;html=1;hachureGap=4;fontFamily=Helvetica;" vertex="1" parent="eYYUnCkTj0kGZBejybl2-2">
          <mxGeometry x="1240" y="40" width="440" height="560" as="geometry" />
        </mxCell>
        <mxCell id="eYYUnCkTj0kGZBejybl2-25" value="Amazon API Gateway&lt;br&gt;Notifications API" style="sketch=0;points=[[0,0,0],[0.25,0,0],[0.5,0,0],[0.75,0,0],[1,0,0],[0,1,0],[0.25,1,0],[0.5,1,0],[0.75,1,0],[1,1,0],[0,0.25,0],[0,0.5,0],[0,0.75,0],[1,0.25,0],[1,0.5,0],[1,0.75,0]];outlineConnect=0;fontColor=#232F3E;fillColor=#E7157B;strokeColor=#ffffff;dashed=0;verticalLabelPosition=bottom;verticalAlign=top;align=center;html=1;fontSize=12;fontStyle=1;aspect=fixed;shape=mxgraph.aws4.resourceIcon;resIcon=mxgraph.aws4.api_gateway;fontFamily=Helvetica;" vertex="1" parent="eYYUnCkTj0kGZBejybl2-2">
          <mxGeometry x="482" y="351" width="78" height="78" as="geometry" />
        </mxCell>
        <mxCell id="eYYUnCkTj0kGZBejybl2-26" style="edgeStyle=orthogonalEdgeStyle;rounded=0;orthogonalLoop=1;jettySize=auto;html=1;fontFamily=Helvetica;fontStyle=1" edge="1" parent="eYYUnCkTj0kGZBejybl2-2" source="eYYUnCkTj0kGZBejybl2-29" target="eYYUnCkTj0kGZBejybl2-31">
          <mxGeometry relative="1" as="geometry" />
        </mxCell>
        <mxCell id="eYYUnCkTj0kGZBejybl2-29" value="AWS Lambda&lt;br&gt;Regions API" style="sketch=0;points=[[0,0,0],[0.25,0,0],[0.5,0,0],[0.75,0,0],[1,0,0],[0,1,0],[0.25,1,0],[0.5,1,0],[0.75,1,0],[1,1,0],[0,0.25,0],[0,0.5,0],[0,0.75,0],[1,0.25,0],[1,0.5,0],[1,0.75,0]];outlineConnect=0;fontColor=#232F3E;fillColor=#ED7100;strokeColor=#ffffff;dashed=0;verticalLabelPosition=bottom;verticalAlign=top;align=center;html=1;fontSize=12;fontStyle=1;aspect=fixed;shape=mxgraph.aws4.resourceIcon;resIcon=mxgraph.aws4.lambda;fontFamily=Helvetica;" vertex="1" parent="eYYUnCkTj0kGZBejybl2-2">
          <mxGeometry x="682" y="351" width="78" height="78" as="geometry" />
        </mxCell>
        <mxCell id="eYYUnCkTj0kGZBejybl2-30" style="edgeStyle=orthogonalEdgeStyle;rounded=0;orthogonalLoop=1;jettySize=auto;html=1;fontFamily=Helvetica;fontStyle=1" edge="1" parent="eYYUnCkTj0kGZBejybl2-2" source="eYYUnCkTj0kGZBejybl2-25" target="eYYUnCkTj0kGZBejybl2-29">
          <mxGeometry relative="1" as="geometry" />
        </mxCell>
        <mxCell id="eYYUnCkTj0kGZBejybl2-31" value="Amazon DynamoDB&lt;br&gt;Regions" style="sketch=0;points=[[0,0,0],[0.25,0,0],[0.5,0,0],[0.75,0,0],[1,0,0],[0,1,0],[0.25,1,0],[0.5,1,0],[0.75,1,0],[1,1,0],[0,0.25,0],[0,0.5,0],[0,0.75,0],[1,0.25,0],[1,0.5,0],[1,0.75,0]];outlineConnect=0;fontColor=#232F3E;fillColor=#C925D1;strokeColor=#ffffff;dashed=0;verticalLabelPosition=bottom;verticalAlign=top;align=center;html=1;fontSize=12;fontStyle=1;aspect=fixed;shape=mxgraph.aws4.resourceIcon;resIcon=mxgraph.aws4.dynamodb;fontFamily=Helvetica;" vertex="1" parent="eYYUnCkTj0kGZBejybl2-2">
          <mxGeometry x="682" y="153" width="78" height="78" as="geometry" />
        </mxCell>
        <mxCell id="eYYUnCkTj0kGZBejybl2-33" style="edgeStyle=orthogonalEdgeStyle;rounded=0;orthogonalLoop=1;jettySize=auto;html=1;fontFamily=Helvetica;fontStyle=1" edge="1" parent="eYYUnCkTj0kGZBejybl2-2" source="eYYUnCkTj0kGZBejybl2-36" target="eYYUnCkTj0kGZBejybl2-42">
          <mxGeometry relative="1" as="geometry" />
        </mxCell>
        <mxCell id="eYYUnCkTj0kGZBejybl2-34" style="edgeStyle=orthogonalEdgeStyle;rounded=0;orthogonalLoop=1;jettySize=auto;html=1;fontFamily=Helvetica;fontStyle=1" edge="1" parent="eYYUnCkTj0kGZBejybl2-2" source="eYYUnCkTj0kGZBejybl2-36" target="eYYUnCkTj0kGZBejybl2-39">
          <mxGeometry relative="1" as="geometry">
            <Array as="points">
              <mxPoint x="105" y="1170.5" />
            </Array>
          </mxGeometry>
        </mxCell>
        <mxCell id="eYYUnCkTj0kGZBejybl2-35" style="edgeStyle=orthogonalEdgeStyle;rounded=0;orthogonalLoop=1;jettySize=auto;html=1;fontFamily=Helvetica;fontStyle=1" edge="1" parent="eYYUnCkTj0kGZBejybl2-2" source="eYYUnCkTj0kGZBejybl2-36" target="eYYUnCkTj0kGZBejybl2-40">
          <mxGeometry relative="1" as="geometry">
            <Array as="points">
              <mxPoint x="105" y="1404.5" />
            </Array>
          </mxGeometry>
        </mxCell>
        <mxCell id="eYYUnCkTj0kGZBejybl2-36" value="AWS Lambda&lt;br&gt;Enigine Executor" style="outlineConnect=0;dashed=0;verticalLabelPosition=bottom;verticalAlign=top;align=center;html=1;shape=mxgraph.aws3.lambda_function;fillColor=#F58534;gradientColor=none;fontFamily=Helvetica;fontStyle=1" vertex="1" parent="eYYUnCkTj0kGZBejybl2-2">
          <mxGeometry x="70" y="1248" width="69" height="72" as="geometry" />
        </mxCell>
        <mxCell id="eYYUnCkTj0kGZBejybl2-37" style="edgeStyle=orthogonalEdgeStyle;rounded=0;orthogonalLoop=1;jettySize=auto;html=1;fontFamily=Helvetica;fontStyle=1" edge="1" parent="eYYUnCkTj0kGZBejybl2-2" source="eYYUnCkTj0kGZBejybl2-38" target="eYYUnCkTj0kGZBejybl2-44">
          <mxGeometry relative="1" as="geometry" />
        </mxCell>
        <mxCell id="eYYUnCkTj0kGZBejybl2-38" value="AWS Batch" style="sketch=0;points=[[0,0,0],[0.25,0,0],[0.5,0,0],[0.75,0,0],[1,0,0],[0,1,0],[0.25,1,0],[0.5,1,0],[0.75,1,0],[1,1,0],[0,0.25,0],[0,0.5,0],[0,0.75,0],[1,0.25,0],[1,0.5,0],[1,0.75,0]];outlineConnect=0;fontColor=#232F3E;fillColor=#ED7100;strokeColor=#ffffff;dashed=0;verticalLabelPosition=bottom;verticalAlign=top;align=center;html=1;fontSize=12;fontStyle=1;aspect=fixed;shape=mxgraph.aws4.resourceIcon;resIcon=mxgraph.aws4.batch;fontFamily=Helvetica;" vertex="1" parent="eYYUnCkTj0kGZBejybl2-2">
          <mxGeometry x="470" y="1245" width="78" height="78" as="geometry" />
        </mxCell>
        <mxCell id="eYYUnCkTj0kGZBejybl2-39" value="High Priority&lt;br&gt;Queue" style="sketch=0;outlineConnect=0;fontColor=#232F3E;gradientColor=none;fillColor=#E7157B;strokeColor=none;dashed=0;verticalLabelPosition=bottom;verticalAlign=top;align=center;html=1;fontSize=12;fontStyle=1;aspect=fixed;pointerEvents=1;shape=mxgraph.aws4.queue;fontFamily=Helvetica;" vertex="1" parent="eYYUnCkTj0kGZBejybl2-2">
          <mxGeometry x="270" y="1143.5" width="78" height="47" as="geometry" />
        </mxCell>
        <mxCell id="eYYUnCkTj0kGZBejybl2-40" value="Low Priority&lt;br&gt;Queue" style="sketch=0;outlineConnect=0;fontColor=#232F3E;gradientColor=none;fillColor=#E7157B;strokeColor=none;dashed=0;verticalLabelPosition=bottom;verticalAlign=top;align=center;html=1;fontSize=12;fontStyle=1;aspect=fixed;pointerEvents=1;shape=mxgraph.aws4.queue;fontFamily=Helvetica;" vertex="1" parent="eYYUnCkTj0kGZBejybl2-2">
          <mxGeometry x="270" y="1380.5" width="78" height="47" as="geometry" />
        </mxCell>
        <mxCell id="eYYUnCkTj0kGZBejybl2-41" style="edgeStyle=orthogonalEdgeStyle;rounded=0;orthogonalLoop=1;jettySize=auto;html=1;fontFamily=Helvetica;fontStyle=1" edge="1" parent="eYYUnCkTj0kGZBejybl2-2" source="eYYUnCkTj0kGZBejybl2-42" target="eYYUnCkTj0kGZBejybl2-38">
          <mxGeometry relative="1" as="geometry" />
        </mxCell>
        <mxCell id="eYYUnCkTj0kGZBejybl2-42" value="Standard Priority&lt;br&gt;Queue" style="sketch=0;outlineConnect=0;fontColor=#232F3E;gradientColor=none;fillColor=#E7157B;strokeColor=none;dashed=0;verticalLabelPosition=bottom;verticalAlign=top;align=center;html=1;fontSize=12;fontStyle=1;aspect=fixed;pointerEvents=1;shape=mxgraph.aws4.queue;fontFamily=Helvetica;" vertex="1" parent="eYYUnCkTj0kGZBejybl2-2">
          <mxGeometry x="270" y="1260.5" width="78" height="47" as="geometry" />
        </mxCell>
        <mxCell id="eYYUnCkTj0kGZBejybl2-111" style="edgeStyle=orthogonalEdgeStyle;rounded=0;hachureGap=4;orthogonalLoop=1;jettySize=auto;html=1;fontFamily=Architects Daughter;fontSource=https%3A%2F%2Ffonts.googleapis.com%2Fcss%3Ffamily%3DArchitects%2BDaughter;" edge="1" parent="eYYUnCkTj0kGZBejybl2-2" source="eYYUnCkTj0kGZBejybl2-44" target="eYYUnCkTj0kGZBejybl2-24">
          <mxGeometry relative="1" as="geometry">
            <Array as="points">
              <mxPoint x="658" y="1060" />
              <mxPoint x="1120" y="1060" />
            </Array>
          </mxGeometry>
        </mxCell>
        <mxCell id="eYYUnCkTj0kGZBejybl2-44" value="Engine Processing&lt;br&gt;Task" style="sketch=0;outlineConnect=0;fontColor=#232F3E;gradientColor=none;fillColor=#ED7100;strokeColor=none;dashed=0;verticalLabelPosition=bottom;verticalAlign=top;align=center;html=1;fontSize=12;fontStyle=1;aspect=fixed;pointerEvents=1;shape=mxgraph.aws4.ecs_task;fontFamily=Helvetica;" vertex="1" parent="eYYUnCkTj0kGZBejybl2-2">
          <mxGeometry x="640" y="1259.5" width="37" height="48" as="geometry" />
        </mxCell>
        <mxCell id="eYYUnCkTj0kGZBejybl2-46" value="Amazon API Gateway&lt;br&gt;Results API" style="sketch=0;points=[[0,0,0],[0.25,0,0],[0.5,0,0],[0.75,0,0],[1,0,0],[0,1,0],[0.25,1,0],[0.5,1,0],[0.75,1,0],[1,1,0],[0,0.25,0],[0,0.5,0],[0,0.75,0],[1,0.25,0],[1,0.5,0],[1,0.75,0]];outlineConnect=0;fontColor=#232F3E;fillColor=#E7157B;strokeColor=#ffffff;dashed=0;verticalLabelPosition=bottom;verticalAlign=top;align=center;html=1;fontSize=12;fontStyle=1;aspect=fixed;shape=mxgraph.aws4.resourceIcon;resIcon=mxgraph.aws4.api_gateway;fontFamily=Helvetica;" vertex="1" parent="eYYUnCkTj0kGZBejybl2-2">
          <mxGeometry x="881" y="356" width="78" height="78" as="geometry" />
        </mxCell>
        <mxCell id="eYYUnCkTj0kGZBejybl2-47" style="edgeStyle=orthogonalEdgeStyle;rounded=0;orthogonalLoop=1;jettySize=auto;html=1;fontFamily=Helvetica;fontStyle=1" edge="1" parent="eYYUnCkTj0kGZBejybl2-2" source="eYYUnCkTj0kGZBejybl2-48" target="eYYUnCkTj0kGZBejybl2-50">
          <mxGeometry relative="1" as="geometry" />
        </mxCell>
        <mxCell id="eYYUnCkTj0kGZBejybl2-116" style="edgeStyle=orthogonalEdgeStyle;rounded=0;hachureGap=4;orthogonalLoop=1;jettySize=auto;html=1;fontFamily=Architects Daughter;fontSource=https%3A%2F%2Ffonts.googleapis.com%2Fcss%3Ffamily%3DArchitects%2BDaughter;" edge="1" parent="eYYUnCkTj0kGZBejybl2-2" source="eYYUnCkTj0kGZBejybl2-48" target="eYYUnCkTj0kGZBejybl2-79">
          <mxGeometry relative="1" as="geometry">
            <Array as="points">
              <mxPoint x="1140" y="530" />
              <mxPoint x="1561" y="530" />
            </Array>
          </mxGeometry>
        </mxCell>
        <mxCell id="eYYUnCkTj0kGZBejybl2-48" value="AWS Lambda&lt;br&gt;Results API" style="sketch=0;points=[[0,0,0],[0.25,0,0],[0.5,0,0],[0.75,0,0],[1,0,0],[0,1,0],[0.25,1,0],[0.5,1,0],[0.75,1,0],[1,1,0],[0,0.25,0],[0,0.5,0],[0,0.75,0],[1,0.25,0],[1,0.5,0],[1,0.75,0]];outlineConnect=0;fontColor=#232F3E;fillColor=#ED7100;strokeColor=#ffffff;dashed=0;verticalLabelPosition=bottom;verticalAlign=top;align=center;html=1;fontSize=12;fontStyle=1;aspect=fixed;shape=mxgraph.aws4.resourceIcon;resIcon=mxgraph.aws4.lambda;fontFamily=Helvetica;" vertex="1" parent="eYYUnCkTj0kGZBejybl2-2">
          <mxGeometry x="1081" y="356" width="78" height="78" as="geometry" />
        </mxCell>
        <mxCell id="eYYUnCkTj0kGZBejybl2-49" style="edgeStyle=orthogonalEdgeStyle;rounded=0;orthogonalLoop=1;jettySize=auto;html=1;fontFamily=Helvetica;fontStyle=1" edge="1" parent="eYYUnCkTj0kGZBejybl2-2" source="eYYUnCkTj0kGZBejybl2-46" target="eYYUnCkTj0kGZBejybl2-48">
          <mxGeometry relative="1" as="geometry" />
        </mxCell>
        <mxCell id="eYYUnCkTj0kGZBejybl2-50" value="Amazon DynamoDB&lt;br&gt;Results" style="sketch=0;points=[[0,0,0],[0.25,0,0],[0.5,0,0],[0.75,0,0],[1,0,0],[0,1,0],[0.25,1,0],[0.5,1,0],[0.75,1,0],[1,1,0],[0,0.25,0],[0,0.5,0],[0,0.75,0],[1,0.25,0],[1,0.5,0],[1,0.75,0]];outlineConnect=0;fontColor=#232F3E;fillColor=#C925D1;strokeColor=#ffffff;dashed=0;verticalLabelPosition=bottom;verticalAlign=top;align=center;html=1;fontSize=12;fontStyle=1;aspect=fixed;shape=mxgraph.aws4.resourceIcon;resIcon=mxgraph.aws4.dynamodb;fontFamily=Helvetica;" vertex="1" parent="eYYUnCkTj0kGZBejybl2-2">
          <mxGeometry x="1081" y="158" width="78" height="78" as="geometry" />
        </mxCell>
        <mxCell id="eYYUnCkTj0kGZBejybl2-16" value="Scheduler" style="fillColor=none;strokeColor=#5A6C86;verticalAlign=top;fontStyle=1;fontColor=#330000;whiteSpace=wrap;html=1;hachureGap=4;fontFamily=Helvetica;" vertex="1" parent="eYYUnCkTj0kGZBejybl2-2">
          <mxGeometry x="840" y="1080.5" width="640" height="400" as="geometry" />
        </mxCell>
        <mxCell id="eYYUnCkTj0kGZBejybl2-51" style="edgeStyle=orthogonalEdgeStyle;rounded=0;orthogonalLoop=1;jettySize=auto;html=1;fontFamily=Helvetica;fontStyle=1" edge="1" parent="eYYUnCkTj0kGZBejybl2-2" source="eYYUnCkTj0kGZBejybl2-53" target="eYYUnCkTj0kGZBejybl2-55">
          <mxGeometry relative="1" as="geometry">
            <Array as="points">
              <mxPoint x="941" y="1297" />
              <mxPoint x="941" y="1297" />
            </Array>
          </mxGeometry>
        </mxCell>
        <mxCell id="eYYUnCkTj0kGZBejybl2-53" value="Amazon EventBridge Scheduler" style="sketch=0;outlineConnect=0;fontColor=#232F3E;gradientColor=none;fillColor=#E7157B;strokeColor=none;dashed=0;verticalLabelPosition=bottom;verticalAlign=top;align=center;html=1;fontSize=12;fontStyle=1;aspect=fixed;pointerEvents=1;shape=mxgraph.aws4.eventbridge_scheduler;fontFamily=Helvetica;" vertex="1" parent="eYYUnCkTj0kGZBejybl2-2">
          <mxGeometry x="901" y="1117" width="78" height="78" as="geometry" />
        </mxCell>
        <mxCell id="eYYUnCkTj0kGZBejybl2-55" value="Amazon Simple Queue Service&lt;br&gt;Engine Queue" style="sketch=0;points=[[0,0,0],[0.25,0,0],[0.5,0,0],[0.75,0,0],[1,0,0],[0,1,0],[0.25,1,0],[0.5,1,0],[0.75,1,0],[1,1,0],[0,0.25,0],[0,0.5,0],[0,0.75,0],[1,0.25,0],[1,0.5,0],[1,0.75,0]];outlineConnect=0;fontColor=#232F3E;fillColor=#E7157B;strokeColor=#ffffff;dashed=0;verticalLabelPosition=bottom;verticalAlign=top;align=center;html=1;fontSize=12;fontStyle=1;aspect=fixed;shape=mxgraph.aws4.resourceIcon;resIcon=mxgraph.aws4.sqs;fontFamily=Helvetica;" vertex="1" parent="eYYUnCkTj0kGZBejybl2-2">
          <mxGeometry x="891" y="1308" width="78" height="78" as="geometry" />
        </mxCell>
        <mxCell id="eYYUnCkTj0kGZBejybl2-56" style="edgeStyle=orthogonalEdgeStyle;rounded=0;orthogonalLoop=1;jettySize=auto;html=1;fontFamily=Helvetica;fontStyle=1" edge="1" parent="eYYUnCkTj0kGZBejybl2-2" source="eYYUnCkTj0kGZBejybl2-57" target="eYYUnCkTj0kGZBejybl2-65">
          <mxGeometry relative="1" as="geometry" />
        </mxCell>
        <mxCell id="eYYUnCkTj0kGZBejybl2-57" value="Amazon Simple Queue Service" style="sketch=0;points=[[0,0,0],[0.25,0,0],[0.5,0,0],[0.75,0,0],[1,0,0],[0,1,0],[0.25,1,0],[0.5,1,0],[0.75,1,0],[1,1,0],[0,0.25,0],[0,0.5,0],[0,0.75,0],[1,0.25,0],[1,0.5,0],[1,0.75,0]];outlineConnect=0;fontColor=#232F3E;fillColor=#E7157B;strokeColor=#ffffff;dashed=0;verticalLabelPosition=bottom;verticalAlign=top;align=center;html=1;fontSize=12;fontStyle=1;aspect=fixed;shape=mxgraph.aws4.resourceIcon;resIcon=mxgraph.aws4.sqs;movable=1;resizable=1;rotatable=1;deletable=1;editable=1;locked=0;connectable=1;fontFamily=Helvetica;" vertex="1" parent="eYYUnCkTj0kGZBejybl2-2">
          <mxGeometry x="1351" y="1306" width="78" height="78" as="geometry" />
        </mxCell>
        <mxCell id="eYYUnCkTj0kGZBejybl2-60" value="" style="edgeStyle=orthogonalEdgeStyle;rounded=0;orthogonalLoop=1;jettySize=auto;html=1;fontFamily=Helvetica;fontStyle=1" edge="1" parent="eYYUnCkTj0kGZBejybl2-2" source="eYYUnCkTj0kGZBejybl2-61" target="eYYUnCkTj0kGZBejybl2-53">
          <mxGeometry relative="1" as="geometry" />
        </mxCell>
        <mxCell id="eYYUnCkTj0kGZBejybl2-61" value="AWS Lambda&lt;br&gt;Scheduled Filter" style="outlineConnect=0;dashed=0;verticalLabelPosition=bottom;verticalAlign=top;align=center;html=1;shape=mxgraph.aws3.lambda_function;fillColor=#F58534;gradientColor=none;fontFamily=Helvetica;fontStyle=1" vertex="1" parent="eYYUnCkTj0kGZBejybl2-2">
          <mxGeometry x="1136.5" y="1120" width="69" height="72" as="geometry" />
        </mxCell>
        <mxCell id="eYYUnCkTj0kGZBejybl2-63" style="edgeStyle=orthogonalEdgeStyle;rounded=0;orthogonalLoop=1;jettySize=auto;html=1;fontFamily=Helvetica;fontStyle=1" edge="1" parent="eYYUnCkTj0kGZBejybl2-2" source="eYYUnCkTj0kGZBejybl2-65" target="eYYUnCkTj0kGZBejybl2-55">
          <mxGeometry relative="1" as="geometry" />
        </mxCell>
        <mxCell id="eYYUnCkTj0kGZBejybl2-65" value="AWS Lambda&lt;br&gt;New Scene Filter" style="outlineConnect=0;dashed=0;verticalLabelPosition=bottom;verticalAlign=top;align=center;html=1;shape=mxgraph.aws3.lambda_function;fillColor=#F58534;gradientColor=none;fontFamily=Helvetica;fontStyle=1" vertex="1" parent="eYYUnCkTj0kGZBejybl2-2">
          <mxGeometry x="1136.5" y="1310" width="69" height="72" as="geometry" />
        </mxCell>
        <mxCell id="eYYUnCkTj0kGZBejybl2-67" style="edgeStyle=orthogonalEdgeStyle;rounded=0;orthogonalLoop=1;jettySize=auto;html=1;fontFamily=Helvetica;fontStyle=1" edge="1" parent="eYYUnCkTj0kGZBejybl2-2" source="eYYUnCkTj0kGZBejybl2-68" target="eYYUnCkTj0kGZBejybl2-70">
          <mxGeometry relative="1" as="geometry" />
        </mxCell>
        <mxCell id="eYYUnCkTj0kGZBejybl2-68" value="Amazon API Gateway&lt;br&gt;Notifications API" style="sketch=0;points=[[0,0,0],[0.25,0,0],[0.5,0,0],[0.75,0,0],[1,0,0],[0,1,0],[0.25,1,0],[0.5,1,0],[0.75,1,0],[1,1,0],[0,0.25,0],[0,0.5,0],[0,0.75,0],[1,0.25,0],[1,0.5,0],[1,0.75,0]];outlineConnect=0;fontColor=#232F3E;fillColor=#E7157B;strokeColor=#ffffff;dashed=0;verticalLabelPosition=bottom;verticalAlign=top;align=center;html=1;fontSize=12;fontStyle=1;aspect=fixed;shape=mxgraph.aws4.resourceIcon;resIcon=mxgraph.aws4.api_gateway;fontFamily=Helvetica;" vertex="1" parent="eYYUnCkTj0kGZBejybl2-2">
          <mxGeometry x="141" y="712.5" width="78" height="78" as="geometry" />
        </mxCell>
        <mxCell id="eYYUnCkTj0kGZBejybl2-69" style="edgeStyle=orthogonalEdgeStyle;rounded=0;orthogonalLoop=1;jettySize=auto;html=1;fontFamily=Helvetica;fontStyle=1" edge="1" parent="eYYUnCkTj0kGZBejybl2-2" source="eYYUnCkTj0kGZBejybl2-70" target="eYYUnCkTj0kGZBejybl2-71">
          <mxGeometry relative="1" as="geometry" />
        </mxCell>
        <mxCell id="eYYUnCkTj0kGZBejybl2-107" style="edgeStyle=orthogonalEdgeStyle;rounded=0;hachureGap=4;orthogonalLoop=1;jettySize=auto;html=1;fontFamily=Architects Daughter;fontSource=https%3A%2F%2Ffonts.googleapis.com%2Fcss%3Ffamily%3DArchitects%2BDaughter;" edge="1" parent="eYYUnCkTj0kGZBejybl2-2" source="eYYUnCkTj0kGZBejybl2-70" target="eYYUnCkTj0kGZBejybl2-76">
          <mxGeometry relative="1" as="geometry">
            <Array as="points">
              <mxPoint x="418" y="840" />
              <mxPoint x="180" y="840" />
            </Array>
          </mxGeometry>
        </mxCell>
        <mxCell id="eYYUnCkTj0kGZBejybl2-70" value="AWS Lambda&lt;br&gt;Notifications API" style="sketch=0;points=[[0,0,0],[0.25,0,0],[0.5,0,0],[0.75,0,0],[1,0,0],[0,1,0],[0.25,1,0],[0.5,1,0],[0.75,1,0],[1,1,0],[0,0.25,0],[0,0.5,0],[0,0.75,0],[1,0.25,0],[1,0.5,0],[1,0.75,0]];outlineConnect=0;fontColor=#232F3E;fillColor=#ED7100;strokeColor=#ffffff;dashed=0;verticalLabelPosition=bottom;verticalAlign=top;align=center;html=1;fontSize=12;fontStyle=1;aspect=fixed;shape=mxgraph.aws4.resourceIcon;resIcon=mxgraph.aws4.lambda;fontFamily=Helvetica;" vertex="1" parent="eYYUnCkTj0kGZBejybl2-2">
          <mxGeometry x="384" y="716.39" width="68" height="68" as="geometry" />
        </mxCell>
        <mxCell id="eYYUnCkTj0kGZBejybl2-71" value="Amazon DynamoDB&lt;br&gt;Notifications" style="sketch=0;points=[[0,0,0],[0.25,0,0],[0.5,0,0],[0.75,0,0],[1,0,0],[0,1,0],[0.25,1,0],[0.5,1,0],[0.75,1,0],[1,1,0],[0,0.25,0],[0,0.5,0],[0,0.75,0],[1,0.25,0],[1,0.5,0],[1,0.75,0]];outlineConnect=0;fontColor=#232F3E;fillColor=#C925D1;strokeColor=#ffffff;dashed=0;verticalLabelPosition=bottom;verticalAlign=top;align=center;html=1;fontSize=12;fontStyle=1;aspect=fixed;shape=mxgraph.aws4.resourceIcon;resIcon=mxgraph.aws4.dynamodb;fontFamily=Helvetica;" vertex="1" parent="eYYUnCkTj0kGZBejybl2-2">
          <mxGeometry x="621" y="712.5" width="78" height="78" as="geometry" />
        </mxCell>
        <mxCell id="eYYUnCkTj0kGZBejybl2-74" style="edgeStyle=orthogonalEdgeStyle;rounded=0;orthogonalLoop=1;jettySize=auto;html=1;fontFamily=Helvetica;fontStyle=1" edge="1" parent="eYYUnCkTj0kGZBejybl2-2" source="eYYUnCkTj0kGZBejybl2-75" target="eYYUnCkTj0kGZBejybl2-76">
          <mxGeometry relative="1" as="geometry" />
        </mxCell>
        <mxCell id="eYYUnCkTj0kGZBejybl2-75" value="AWS Lambda&lt;br&gt;Engine Module Listener" style="sketch=0;points=[[0,0,0],[0.25,0,0],[0.5,0,0],[0.75,0,0],[1,0,0],[0,1,0],[0.25,1,0],[0.5,1,0],[0.75,1,0],[1,1,0],[0,0.25,0],[0,0.5,0],[0,0.75,0],[1,0.25,0],[1,0.5,0],[1,0.75,0]];outlineConnect=0;fontColor=#232F3E;fillColor=#ED7100;strokeColor=#ffffff;dashed=0;verticalLabelPosition=bottom;verticalAlign=top;align=center;html=1;fontSize=12;fontStyle=1;aspect=fixed;shape=mxgraph.aws4.resourceIcon;resIcon=mxgraph.aws4.lambda;fontFamily=Helvetica;" vertex="1" parent="eYYUnCkTj0kGZBejybl2-2">
          <mxGeometry x="379" y="869.5" width="78" height="78" as="geometry" />
        </mxCell>
        <mxCell id="eYYUnCkTj0kGZBejybl2-76" value="Amazon Simple Notification Service&lt;br&gt;Agie Topics" style="sketch=0;points=[[0,0,0],[0.25,0,0],[0.5,0,0],[0.75,0,0],[1,0,0],[0,1,0],[0.25,1,0],[0.5,1,0],[0.75,1,0],[1,1,0],[0,0.25,0],[0,0.5,0],[0,0.75,0],[1,0.25,0],[1,0.5,0],[1,0.75,0]];outlineConnect=0;fontColor=#232F3E;fillColor=#E7157B;strokeColor=#ffffff;dashed=0;verticalLabelPosition=bottom;verticalAlign=top;align=center;html=1;fontSize=12;fontStyle=1;aspect=fixed;shape=mxgraph.aws4.resourceIcon;resIcon=mxgraph.aws4.sns;fontFamily=Helvetica;" vertex="1" parent="eYYUnCkTj0kGZBejybl2-2">
          <mxGeometry x="141" y="869.5" width="78" height="78" as="geometry" />
        </mxCell>
        <mxCell id="eYYUnCkTj0kGZBejybl2-103" style="edgeStyle=orthogonalEdgeStyle;rounded=0;sketch=1;hachureGap=4;jiggle=2;curveFitting=1;orthogonalLoop=1;jettySize=auto;html=1;fontFamily=Architects Daughter;fontSource=https%3A%2F%2Ffonts.googleapis.com%2Fcss%3Ffamily%3DArchitects%2BDaughter;strokeColor=none;" edge="1" parent="eYYUnCkTj0kGZBejybl2-2" source="eYYUnCkTj0kGZBejybl2-77" target="eYYUnCkTj0kGZBejybl2-78">
          <mxGeometry relative="1" as="geometry" />
        </mxCell>
        <mxCell id="eYYUnCkTj0kGZBejybl2-105" style="edgeStyle=orthogonalEdgeStyle;rounded=0;sketch=1;hachureGap=4;jiggle=2;curveFitting=1;orthogonalLoop=1;jettySize=auto;html=1;fontFamily=Architects Daughter;fontSource=https%3A%2F%2Ffonts.googleapis.com%2Fcss%3Ffamily%3DArchitects%2BDaughter;" edge="1" parent="eYYUnCkTj0kGZBejybl2-2" source="eYYUnCkTj0kGZBejybl2-77" target="eYYUnCkTj0kGZBejybl2-78">
          <mxGeometry relative="1" as="geometry" />
        </mxCell>
        <mxCell id="eYYUnCkTj0kGZBejybl2-77" value="Amazon API Gateway&lt;br&gt;Stac API" style="sketch=0;points=[[0,0,0],[0.25,0,0],[0.5,0,0],[0.75,0,0],[1,0,0],[0,1,0],[0.25,1,0],[0.5,1,0],[0.75,1,0],[1,1,0],[0,0.25,0],[0,0.5,0],[0,0.75,0],[1,0.25,0],[1,0.5,0],[1,0.75,0]];outlineConnect=0;fontColor=#232F3E;fillColor=#E7157B;strokeColor=#ffffff;dashed=0;verticalLabelPosition=bottom;verticalAlign=top;align=center;html=1;fontSize=12;fontStyle=1;aspect=fixed;shape=mxgraph.aws4.resourceIcon;resIcon=mxgraph.aws4.api_gateway;fontFamily=Helvetica;" vertex="1" parent="eYYUnCkTj0kGZBejybl2-2">
          <mxGeometry x="1320.5" y="158" width="78" height="78" as="geometry" />
        </mxCell>
        <mxCell id="eYYUnCkTj0kGZBejybl2-106" style="edgeStyle=orthogonalEdgeStyle;rounded=0;hachureGap=4;orthogonalLoop=1;jettySize=auto;html=1;fontFamily=Architects Daughter;fontSource=https%3A%2F%2Ffonts.googleapis.com%2Fcss%3Ffamily%3DArchitects%2BDaughter;jumpStyle=arc;" edge="1" parent="eYYUnCkTj0kGZBejybl2-2" source="eYYUnCkTj0kGZBejybl2-78" target="eYYUnCkTj0kGZBejybl2-80">
          <mxGeometry relative="1" as="geometry">
            <Array as="points">
              <mxPoint x="1460" y="210" />
              <mxPoint x="1460" y="357" />
            </Array>
          </mxGeometry>
        </mxCell>
        <mxCell id="eYYUnCkTj0kGZBejybl2-78" value="AWS Lambda&lt;br&gt;Stac API" style="sketch=0;points=[[0,0,0],[0.25,0,0],[0.5,0,0],[0.75,0,0],[1,0,0],[0,1,0],[0.25,1,0],[0.5,1,0],[0.75,1,0],[1,1,0],[0,0.25,0],[0,0.5,0],[0,0.75,0],[1,0.25,0],[1,0.5,0],[1,0.75,0]];outlineConnect=0;fontColor=#232F3E;fillColor=#ED7100;strokeColor=#ffffff;dashed=0;verticalLabelPosition=bottom;verticalAlign=top;align=center;html=1;fontSize=12;fontStyle=1;aspect=fixed;shape=mxgraph.aws4.resourceIcon;resIcon=mxgraph.aws4.lambda;fontFamily=Helvetica;" vertex="1" parent="eYYUnCkTj0kGZBejybl2-2">
          <mxGeometry x="1520.5" y="158" width="78" height="78" as="geometry" />
        </mxCell>
        <mxCell id="eYYUnCkTj0kGZBejybl2-104" style="edgeStyle=orthogonalEdgeStyle;rounded=0;hachureGap=4;orthogonalLoop=1;jettySize=auto;html=1;fontFamily=Architects Daughter;fontSource=https%3A%2F%2Ffonts.googleapis.com%2Fcss%3Ffamily%3DArchitects%2BDaughter;" edge="1" parent="eYYUnCkTj0kGZBejybl2-2" source="eYYUnCkTj0kGZBejybl2-79" target="eYYUnCkTj0kGZBejybl2-78">
          <mxGeometry relative="1" as="geometry" />
        </mxCell>
        <mxCell id="eYYUnCkTj0kGZBejybl2-79" value="Amazon Simple Notification Service&lt;br&gt;Stac Topics" style="sketch=0;points=[[0,0,0],[0.25,0,0],[0.5,0,0],[0.75,0,0],[1,0,0],[0,1,0],[0.25,1,0],[0.5,1,0],[0.75,1,0],[1,1,0],[0,0.25,0],[0,0.5,0],[0,0.75,0],[1,0.25,0],[1,0.5,0],[1,0.75,0]];outlineConnect=0;fontColor=#232F3E;fillColor=#E7157B;strokeColor=#ffffff;dashed=0;verticalLabelPosition=bottom;verticalAlign=top;align=center;html=1;fontSize=12;fontStyle=1;aspect=fixed;shape=mxgraph.aws4.resourceIcon;resIcon=mxgraph.aws4.sns;fontFamily=Helvetica;" vertex="1" parent="eYYUnCkTj0kGZBejybl2-2">
          <mxGeometry x="1521.5" y="318" width="78" height="78" as="geometry" />
        </mxCell>
        <mxCell id="eYYUnCkTj0kGZBejybl2-80" value="Amazon OpenSearch" style="sketch=0;points=[[0,0,0],[0.25,0,0],[0.5,0,0],[0.75,0,0],[1,0,0],[0,1,0],[0.25,1,0],[0.5,1,0],[0.75,1,0],[1,1,0],[0,0.25,0],[0,0.5,0],[0,0.75,0],[1,0.25,0],[1,0.5,0],[1,0.75,0]];outlineConnect=0;fontColor=#232F3E;fillColor=#8C4FFF;strokeColor=#ffffff;dashed=0;verticalLabelPosition=bottom;verticalAlign=top;align=center;html=1;fontSize=12;fontStyle=1;aspect=fixed;shape=mxgraph.aws4.resourceIcon;resIcon=mxgraph.aws4.elasticsearch_service;hachureGap=4;jiggle=2;curveFitting=1;fontFamily=Helvetica;" vertex="1" parent="eYYUnCkTj0kGZBejybl2-2">
          <mxGeometry x="1321.5" y="318" width="78" height="78" as="geometry" />
        </mxCell>
        <mxCell id="eYYUnCkTj0kGZBejybl2-81" style="edgeStyle=orthogonalEdgeStyle;rounded=0;orthogonalLoop=1;jettySize=auto;html=1;fontFamily=Helvetica;fontStyle=1" edge="1" parent="eYYUnCkTj0kGZBejybl2-2" source="eYYUnCkTj0kGZBejybl2-82" target="eYYUnCkTj0kGZBejybl2-83">
          <mxGeometry relative="1" as="geometry" />
        </mxCell>
        <mxCell id="eYYUnCkTj0kGZBejybl2-82" value="Amazon API Gateway&lt;br&gt;Notifications API" style="sketch=0;points=[[0,0,0],[0.25,0,0],[0.5,0,0],[0.75,0,0],[1,0,0],[0,1,0],[0.25,1,0],[0.5,1,0],[0.75,1,0],[1,1,0],[0,0.25,0],[0,0.5,0],[0,0.75,0],[1,0.25,0],[1,0.5,0],[1,0.75,0]];outlineConnect=0;fontColor=#232F3E;fillColor=#E7157B;strokeColor=#ffffff;dashed=0;verticalLabelPosition=bottom;verticalAlign=top;align=center;html=1;fontSize=12;fontStyle=1;aspect=fixed;shape=mxgraph.aws4.resourceIcon;resIcon=mxgraph.aws4.api_gateway;fontFamily=Helvetica;" vertex="1" parent="eYYUnCkTj0kGZBejybl2-2">
          <mxGeometry x="80" y="80" width="78" height="78" as="geometry" />
        </mxCell>
        <mxCell id="eYYUnCkTj0kGZBejybl2-115" style="edgeStyle=orthogonalEdgeStyle;rounded=0;hachureGap=4;orthogonalLoop=1;jettySize=auto;html=1;fontFamily=Architects Daughter;fontSource=https%3A%2F%2Ffonts.googleapis.com%2Fcss%3Ffamily%3DArchitects%2BDaughter;jumpStyle=arc;" edge="1" parent="eYYUnCkTj0kGZBejybl2-2" source="eYYUnCkTj0kGZBejybl2-83" target="eYYUnCkTj0kGZBejybl2-80">
          <mxGeometry relative="1" as="geometry">
            <Array as="points">
              <mxPoint x="329" y="-80" />
              <mxPoint x="1361" y="-80" />
            </Array>
          </mxGeometry>
        </mxCell>
        <mxCell id="eYYUnCkTj0kGZBejybl2-83" value="AWS Lambda&lt;br&gt;Tiler API" style="sketch=0;points=[[0,0,0],[0.25,0,0],[0.5,0,0],[0.75,0,0],[1,0,0],[0,1,0],[0.25,1,0],[0.5,1,0],[0.75,1,0],[1,1,0],[0,0.25,0],[0,0.5,0],[0,0.75,0],[1,0.25,0],[1,0.5,0],[1,0.75,0]];outlineConnect=0;fontColor=#232F3E;fillColor=#ED7100;strokeColor=#ffffff;dashed=0;verticalLabelPosition=bottom;verticalAlign=top;align=center;html=1;fontSize=12;fontStyle=1;aspect=fixed;shape=mxgraph.aws4.resourceIcon;resIcon=mxgraph.aws4.lambda;fontFamily=Helvetica;" vertex="1" parent="eYYUnCkTj0kGZBejybl2-2">
          <mxGeometry x="290" y="80" width="78" height="78" as="geometry" />
        </mxCell>
        <mxCell id="eYYUnCkTj0kGZBejybl2-87" value="Amazon&lt;br&gt;Location Service" style="sketch=0;points=[[0,0,0],[0.25,0,0],[0.5,0,0],[0.75,0,0],[1,0,0],[0,1,0],[0.25,1,0],[0.5,1,0],[0.75,1,0],[1,1,0],[0,0.25,0],[0,0.5,0],[0,0.75,0],[1,0.25,0],[1,0.5,0],[1,0.75,0]];outlineConnect=0;fontColor=#232F3E;fillColor=#DD344C;strokeColor=#ffffff;dashed=0;verticalLabelPosition=bottom;verticalAlign=top;align=center;html=1;fontSize=12;fontStyle=1;aspect=fixed;shape=mxgraph.aws4.resourceIcon;resIcon=mxgraph.aws4.location_service;fontFamily=Helvetica;" vertex="1" parent="eYYUnCkTj0kGZBejybl2-2">
          <mxGeometry x="80" y="252" width="78" height="78" as="geometry" />
        </mxCell>
        <mxCell id="eYYUnCkTj0kGZBejybl2-85" value="Amazon CloudFront" style="sketch=0;points=[[0,0,0],[0.25,0,0],[0.5,0,0],[0.75,0,0],[1,0,0],[0,1,0],[0.25,1,0],[0.5,1,0],[0.75,1,0],[1,1,0],[0,0.25,0],[0,0.5,0],[0,0.75,0],[1,0.25,0],[1,0.5,0],[1,0.75,0]];outlineConnect=0;fontColor=#232F3E;fillColor=#8C4FFF;strokeColor=#ffffff;dashed=0;verticalLabelPosition=bottom;verticalAlign=top;align=center;html=1;fontSize=12;fontStyle=1;aspect=fixed;shape=mxgraph.aws4.resourceIcon;resIcon=mxgraph.aws4.cloudfront;fontFamily=Helvetica;" vertex="1" parent="eYYUnCkTj0kGZBejybl2-2">
          <mxGeometry x="80" y="440" width="78" height="78" as="geometry" />
        </mxCell>
        <mxCell id="eYYUnCkTj0kGZBejybl2-84" style="edgeStyle=orthogonalEdgeStyle;rounded=0;orthogonalLoop=1;jettySize=auto;html=1;fontFamily=Helvetica;fontStyle=1" edge="1" parent="eYYUnCkTj0kGZBejybl2-2" source="eYYUnCkTj0kGZBejybl2-85">
          <mxGeometry relative="1" as="geometry">
            <mxPoint x="291.5066391265859" y="479" as="targetPoint" />
          </mxGeometry>
        </mxCell>
        <mxCell id="eYYUnCkTj0kGZBejybl2-21" value="Shared" style="fillColor=none;strokeColor=#5A6C86;verticalAlign=top;fontStyle=1;fontColor=#330000;whiteSpace=wrap;html=1;hachureGap=4;fontFamily=Helvetica;" vertex="1" parent="eYYUnCkTj0kGZBejybl2-2">
          <mxGeometry x="840" y="639.5" width="360" height="400" as="geometry" />
        </mxCell>
        <mxCell id="eYYUnCkTj0kGZBejybl2-22" value="Amazon Verified Permissions&lt;br&gt;Authorization" style="sketch=0;points=[[0,0,0],[0.25,0,0],[0.5,0,0],[0.75,0,0],[1,0,0],[0,1,0],[0.25,1,0],[0.5,1,0],[0.75,1,0],[1,1,0],[0,0.25,0],[0,0.5,0],[0,0.75,0],[1,0.25,0],[1,0.5,0],[1,0.75,0]];outlineConnect=0;fontColor=#232F3E;fillColor=#DD344C;strokeColor=#ffffff;dashed=0;verticalLabelPosition=bottom;verticalAlign=top;align=center;html=1;fontSize=12;fontStyle=1;aspect=fixed;shape=mxgraph.aws4.resourceIcon;resIcon=mxgraph.aws4.verified_permissions;fontFamily=Helvetica;" vertex="1" parent="eYYUnCkTj0kGZBejybl2-2">
          <mxGeometry x="881" y="716.39" width="78" height="78" as="geometry" />
        </mxCell>
        <mxCell id="eYYUnCkTj0kGZBejybl2-23" value="Amazon Cognito&lt;br&gt;Authentication" style="sketch=0;points=[[0,0,0],[0.25,0,0],[0.5,0,0],[0.75,0,0],[1,0,0],[0,1,0],[0.25,1,0],[0.5,1,0],[0.75,1,0],[1,1,0],[0,0.25,0],[0,0.5,0],[0,0.75,0],[1,0.25,0],[1,0.5,0],[1,0.75,0]];outlineConnect=0;fontColor=#232F3E;fillColor=#DD344C;strokeColor=#ffffff;dashed=0;verticalLabelPosition=bottom;verticalAlign=top;align=center;html=1;fontSize=12;fontStyle=1;aspect=fixed;shape=mxgraph.aws4.resourceIcon;resIcon=mxgraph.aws4.cognito;fontFamily=Helvetica;" vertex="1" parent="eYYUnCkTj0kGZBejybl2-2">
          <mxGeometry x="881" y="876.39" width="78" height="78" as="geometry" />
        </mxCell>
        <mxCell id="eYYUnCkTj0kGZBejybl2-114" style="edgeStyle=orthogonalEdgeStyle;rounded=0;hachureGap=4;orthogonalLoop=1;jettySize=auto;html=1;fontFamily=Architects Daughter;fontSource=https%3A%2F%2Ffonts.googleapis.com%2Fcss%3Ffamily%3DArchitects%2BDaughter;" edge="1" parent="eYYUnCkTj0kGZBejybl2-2" source="eYYUnCkTj0kGZBejybl2-24" target="eYYUnCkTj0kGZBejybl2-75">
          <mxGeometry relative="1" as="geometry">
            <Array as="points">
              <mxPoint x="1040" y="755" />
              <mxPoint x="1040" y="1010" />
              <mxPoint x="418" y="1010" />
            </Array>
          </mxGeometry>
        </mxCell>
        <mxCell id="eYYUnCkTj0kGZBejybl2-117" style="edgeStyle=orthogonalEdgeStyle;rounded=0;hachureGap=4;orthogonalLoop=1;jettySize=auto;html=1;fontFamily=Architects Daughter;fontSource=https%3A%2F%2Ffonts.googleapis.com%2Fcss%3Ffamily%3DArchitects%2BDaughter;jumpStyle=arc;" edge="1" parent="eYYUnCkTj0kGZBejybl2-2" source="eYYUnCkTj0kGZBejybl2-24" target="eYYUnCkTj0kGZBejybl2-36">
          <mxGeometry relative="1" as="geometry">
            <Array as="points">
              <mxPoint x="1140" y="680" />
              <mxPoint x="-160" y="680" />
              <mxPoint x="-160" y="1284" />
            </Array>
          </mxGeometry>
        </mxCell>
        <mxCell id="eYYUnCkTj0kGZBejybl2-24" value="Amazon EventBridge&lt;br&gt;Agie Events" style="sketch=0;points=[[0,0,0],[0.25,0,0],[0.5,0,0],[0.75,0,0],[1,0,0],[0,1,0],[0.25,1,0],[0.5,1,0],[0.75,1,0],[1,1,0],[0,0.25,0],[0,0.5,0],[0,0.75,0],[1,0.25,0],[1,0.5,0],[1,0.75,0]];outlineConnect=0;fontColor=#232F3E;fillColor=#E7157B;strokeColor=#ffffff;dashed=0;verticalLabelPosition=bottom;verticalAlign=top;align=center;html=1;fontSize=12;fontStyle=1;aspect=fixed;shape=mxgraph.aws4.resourceIcon;resIcon=mxgraph.aws4.eventbridge;fontFamily=Helvetica;" vertex="1" parent="eYYUnCkTj0kGZBejybl2-2">
          <mxGeometry x="1081" y="716.39" width="78" height="78" as="geometry" />
        </mxCell>
        <mxCell id="eYYUnCkTj0kGZBejybl2-98" value="Amazon S3" style="sketch=0;points=[[0,0,0],[0.25,0,0],[0.5,0,0],[0.75,0,0],[1,0,0],[0,1,0],[0.25,1,0],[0.5,1,0],[0.75,1,0],[1,1,0],[0,0.25,0],[0,0.5,0],[0,0.75,0],[1,0.25,0],[1,0.5,0],[1,0.75,0]];outlineConnect=0;fontColor=#232F3E;fillColor=#7AA116;strokeColor=#ffffff;dashed=0;verticalLabelPosition=bottom;verticalAlign=top;align=center;html=1;fontSize=12;fontStyle=1;aspect=fixed;shape=mxgraph.aws4.resourceIcon;resIcon=mxgraph.aws4.s3;hachureGap=4;jiggle=2;curveFitting=1;fontFamily=Helvetica;" vertex="1" parent="eYYUnCkTj0kGZBejybl2-2">
          <mxGeometry x="1081" y="876.39" width="78" height="78" as="geometry" />
        </mxCell>
        <mxCell id="eYYUnCkTj0kGZBejybl2-102" value="Amazon S3" style="sketch=0;points=[[0,0,0],[0.25,0,0],[0.5,0,0],[0.75,0,0],[1,0,0],[0,1,0],[0.25,1,0],[0.5,1,0],[0.75,1,0],[1,1,0],[0,0.25,0],[0,0.5,0],[0,0.75,0],[1,0.25,0],[1,0.5,0],[1,0.75,0]];outlineConnect=0;fontColor=#232F3E;fillColor=#7AA116;strokeColor=#ffffff;dashed=0;verticalLabelPosition=bottom;verticalAlign=top;align=center;html=1;fontSize=12;fontStyle=1;aspect=fixed;shape=mxgraph.aws4.resourceIcon;resIcon=mxgraph.aws4.s3;hachureGap=4;jiggle=2;curveFitting=1;fontFamily=Helvetica;" vertex="1" parent="eYYUnCkTj0kGZBejybl2-2">
          <mxGeometry x="290" y="440" width="78" height="78" as="geometry" />
        </mxCell>
        <mxCell id="eYYUnCkTj0kGZBejybl2-108" style="edgeStyle=orthogonalEdgeStyle;rounded=0;hachureGap=4;orthogonalLoop=1;jettySize=auto;html=1;entryX=0.5;entryY=1;entryDx=0;entryDy=0;entryPerimeter=0;fontFamily=Architects Daughter;fontSource=https%3A%2F%2Ffonts.googleapis.com%2Fcss%3Ffamily%3DArchitects%2BDaughter;" edge="1" parent="eYYUnCkTj0kGZBejybl2-2" source="eYYUnCkTj0kGZBejybl2-75" target="eYYUnCkTj0kGZBejybl2-71">
          <mxGeometry relative="1" as="geometry" />
        </mxCell>
        <mxCell id="eYYUnCkTj0kGZBejybl2-110" style="edgeStyle=orthogonalEdgeStyle;rounded=0;hachureGap=4;orthogonalLoop=1;jettySize=auto;html=1;entryX=0.5;entryY=1;entryDx=0;entryDy=0;entryPerimeter=0;fontFamily=Architects Daughter;fontSource=https%3A%2F%2Ffonts.googleapis.com%2Fcss%3Ffamily%3DArchitects%2BDaughter;" edge="1" parent="eYYUnCkTj0kGZBejybl2-2" source="eYYUnCkTj0kGZBejybl2-24" target="eYYUnCkTj0kGZBejybl2-48">
          <mxGeometry relative="1" as="geometry" />
        </mxCell>
        <mxCell id="eYYUnCkTj0kGZBejybl2-113" style="edgeStyle=orthogonalEdgeStyle;rounded=0;hachureGap=4;orthogonalLoop=1;jettySize=auto;html=1;entryX=0.25;entryY=0;entryDx=0;entryDy=0;entryPerimeter=0;fontFamily=Architects Daughter;fontSource=https%3A%2F%2Ffonts.googleapis.com%2Fcss%3Ffamily%3DArchitects%2BDaughter;" edge="1" parent="eYYUnCkTj0kGZBejybl2-2" source="eYYUnCkTj0kGZBejybl2-29" target="eYYUnCkTj0kGZBejybl2-24">
          <mxGeometry relative="1" as="geometry">
            <Array as="points">
              <mxPoint x="721" y="520" />
              <mxPoint x="1101" y="520" />
            </Array>
          </mxGeometry>
        </mxCell>
        <mxCell id="eYYUnCkTj0kGZBejybl2-90" style="edgeStyle=orthogonalEdgeStyle;rounded=0;hachureGap=4;orthogonalLoop=1;jettySize=auto;html=1;fontFamily=Architects Daughter;fontSource=https%3A%2F%2Ffonts.googleapis.com%2Fcss%3Ffamily%3DArchitects%2BDaughter;fontStyle=1" edge="1" parent="1" source="eYYUnCkTj0kGZBejybl2-88" target="eYYUnCkTj0kGZBejybl2-85">
          <mxGeometry relative="1" as="geometry" />
        </mxCell>
        <mxCell id="eYYUnCkTj0kGZBejybl2-88" value="users" style="sketch=0;outlineConnect=0;gradientColor=none;fontColor=#545B64;strokeColor=none;fillColor=#879196;dashed=0;verticalLabelPosition=bottom;verticalAlign=top;align=center;html=1;fontSize=12;fontStyle=1;aspect=fixed;shape=mxgraph.aws4.illustration_users;pointerEvents=1;hachureGap=4;jiggle=2;curveFitting=1;fontFamily=Helvetica;" vertex="1" parent="1">
          <mxGeometry x="-2260" y="549" width="100" height="100" as="geometry" />
        </mxCell>
        <mxCell id="eYYUnCkTj0kGZBejybl2-89" style="edgeStyle=orthogonalEdgeStyle;rounded=0;hachureGap=4;orthogonalLoop=1;jettySize=auto;html=1;fontFamily=Architects Daughter;fontSource=https%3A%2F%2Ffonts.googleapis.com%2Fcss%3Ffamily%3DArchitects%2BDaughter;fontStyle=1" edge="1" parent="1" source="eYYUnCkTj0kGZBejybl2-76" target="eYYUnCkTj0kGZBejybl2-88">
          <mxGeometry relative="1" as="geometry" />
        </mxCell>
        <mxCell id="eYYUnCkTj0kGZBejybl2-91" value="Element84 Account" style="points=[[0,0],[0.25,0],[0.5,0],[0.75,0],[1,0],[1,0.25],[1,0.5],[1,0.75],[1,1],[0.75,1],[0.5,1],[0.25,1],[0,1],[0,0.75],[0,0.5],[0,0.25]];outlineConnect=0;gradientColor=none;html=1;whiteSpace=wrap;fontSize=12;fontStyle=1;container=1;pointerEvents=0;collapsible=0;recursiveResize=0;shape=mxgraph.aws4.group;grIcon=mxgraph.aws4.group_aws_cloud_alt;strokeColor=#232F3E;fillColor=none;verticalAlign=top;align=left;spacingLeft=30;fontColor=#232F3E;dashed=0;" vertex="1" parent="1">
          <mxGeometry x="-2120" y="1760" width="1800" height="320" as="geometry" />
        </mxCell>
        <mxCell id="eYYUnCkTj0kGZBejybl2-92" value="Region" style="points=[[0,0],[0.25,0],[0.5,0],[0.75,0],[1,0],[1,0.25],[1,0.5],[1,0.75],[1,1],[0.75,1],[0.5,1],[0.25,1],[0,1],[0,0.75],[0,0.5],[0,0.25]];outlineConnect=0;gradientColor=none;html=1;whiteSpace=wrap;fontSize=12;fontStyle=1;container=1;pointerEvents=0;collapsible=0;recursiveResize=0;shape=mxgraph.aws4.group;grIcon=mxgraph.aws4.group_region;strokeColor=#147EBA;fillColor=none;verticalAlign=top;align=left;spacingLeft=30;fontColor=#147EBA;dashed=1;" vertex="1" parent="eYYUnCkTj0kGZBejybl2-91">
          <mxGeometry x="40" y="40" width="1720" height="240" as="geometry" />
        </mxCell>
        <mxCell id="eYYUnCkTj0kGZBejybl2-93" value="Amazon Simple Notification Service&lt;br&gt;Sentinel Topic" style="sketch=0;points=[[0,0,0],[0.25,0,0],[0.5,0,0],[0.75,0,0],[1,0,0],[0,1,0],[0.25,1,0],[0.5,1,0],[0.75,1,0],[1,1,0],[0,0.25,0],[0,0.5,0],[0,0.75,0],[1,0.25,0],[1,0.5,0],[1,0.75,0]];outlineConnect=0;fontColor=#232F3E;fillColor=#E7157B;strokeColor=#ffffff;dashed=0;verticalLabelPosition=bottom;verticalAlign=top;align=center;html=1;fontSize=12;fontStyle=1;aspect=fixed;shape=mxgraph.aws4.resourceIcon;resIcon=mxgraph.aws4.sns;" vertex="1" parent="eYYUnCkTj0kGZBejybl2-92">
          <mxGeometry x="1351" y="40" width="78" height="78" as="geometry" />
        </mxCell>
        <mxCell id="eYYUnCkTj0kGZBejybl2-99" value="Amazon S3" style="sketch=0;points=[[0,0,0],[0.25,0,0],[0.5,0,0],[0.75,0,0],[1,0,0],[0,1,0],[0.25,1,0],[0.5,1,0],[0.75,1,0],[1,1,0],[0,0.25,0],[0,0.5,0],[0,0.75,0],[1,0.25,0],[1,0.5,0],[1,0.75,0]];outlineConnect=0;fontColor=#232F3E;fillColor=#7AA116;strokeColor=#ffffff;dashed=0;verticalLabelPosition=bottom;verticalAlign=top;align=center;html=1;fontSize=12;fontStyle=1;aspect=fixed;shape=mxgraph.aws4.resourceIcon;resIcon=mxgraph.aws4.s3;hachureGap=4;jiggle=2;curveFitting=1;fontFamily=Helvetica;" vertex="1" parent="eYYUnCkTj0kGZBejybl2-92">
          <mxGeometry x="621" y="40" width="78" height="78" as="geometry" />
        </mxCell>
        <mxCell id="eYYUnCkTj0kGZBejybl2-96" style="edgeStyle=orthogonalEdgeStyle;rounded=0;hachureGap=4;orthogonalLoop=1;jettySize=auto;html=1;fontFamily=Architects Daughter;fontSource=https%3A%2F%2Ffonts.googleapis.com%2Fcss%3Ffamily%3DArchitects%2BDaughter;" edge="1" parent="1" source="eYYUnCkTj0kGZBejybl2-93" target="eYYUnCkTj0kGZBejybl2-57">
          <mxGeometry relative="1" as="geometry" />
        </mxCell>
        <mxCell id="eYYUnCkTj0kGZBejybl2-100" style="edgeStyle=orthogonalEdgeStyle;rounded=0;hachureGap=4;orthogonalLoop=1;jettySize=auto;html=1;fontFamily=Architects Daughter;fontSource=https%3A%2F%2Ffonts.googleapis.com%2Fcss%3Ffamily%3DArchitects%2BDaughter;" edge="1" parent="1" source="eYYUnCkTj0kGZBejybl2-44" target="eYYUnCkTj0kGZBejybl2-99">
          <mxGeometry relative="1" as="geometry" />
        </mxCell>
        <mxCell id="eYYUnCkTj0kGZBejybl2-119" style="edgeStyle=orthogonalEdgeStyle;rounded=0;hachureGap=4;orthogonalLoop=1;jettySize=auto;html=1;fontFamily=Architects Daughter;fontSource=https%3A%2F%2Ffonts.googleapis.com%2Fcss%3Ffamily%3DArchitects%2BDaughter;" edge="1" parent="1" source="eYYUnCkTj0kGZBejybl2-118" target="eYYUnCkTj0kGZBejybl2-93">
          <mxGeometry relative="1" as="geometry" />
        </mxCell>
        <mxCell id="eYYUnCkTj0kGZBejybl2-118" value="Sentinel-2" style="fontColor=#0066CC;verticalAlign=top;verticalLabelPosition=bottom;labelPosition=center;align=center;html=1;outlineConnect=0;fillColor=#CCCCCC;strokeColor=#6881B3;gradientColor=none;gradientDirection=north;strokeWidth=2;shape=mxgraph.networks.satellite;hachureGap=4;fontFamily=Helvetica;fontStyle=1" vertex="1" parent="1">
          <mxGeometry x="-1100" y="2110" width="100" height="100" as="geometry" />
        </mxCell>
        <mxCell id="eYYUnCkTj0kGZBejybl2-120" style="edgeStyle=orthogonalEdgeStyle;rounded=0;hachureGap=4;orthogonalLoop=1;jettySize=auto;html=1;entryX=0.5;entryY=1;entryDx=0;entryDy=0;entryPerimeter=0;fontFamily=Architects Daughter;fontSource=https%3A%2F%2Ffonts.googleapis.com%2Fcss%3Ffamily%3DArchitects%2BDaughter;" edge="1" parent="1" source="eYYUnCkTj0kGZBejybl2-118" target="eYYUnCkTj0kGZBejybl2-99">
          <mxGeometry relative="1" as="geometry" />
        </mxCell>
      </root>
    </mxGraphModel>
  </diagram>
</mxfile>
